<?xml version="1.0" encoding="UTF-8"?>
<svg version="1.1" xmlns="http://www.w3.org/2000/svg" width="519" height="519">
<path d="M0 0 C61.05 0 122.1 0 185 0 C185 12.21 185 24.42 185 37 C197.21 37 209.42 37 222 37 C222 49.21 222 61.42 222 74 C234.21 74 246.42 74 259 74 C259 86.21 259 98.42 259 111 C271.21 111 283.42 111 296 111 C296 135.42 296 159.84 296 185 C308.21 185 320.42 185 333 185 C333 233.84 333 282.68 333 333 C320.79 333 308.58 333 296 333 C296 357.42 296 381.84 296 407 C283.79 407 271.58 407 259 407 C259 419.21 259 431.42 259 444 C246.79 444 234.58 444 222 444 C222 456.21 222 468.42 222 481 C197.58 481 173.16 481 148 481 C148 493.21 148 505.42 148 518 C99.16 518 50.32 518 0 518 C0 505.79 0 493.58 0 481 C-24.42 481 -48.84 481 -74 481 C-74 468.79 -74 456.58 -74 444 C-86.21 444 -98.42 444 -111 444 C-111 431.79 -111 419.58 -111 407 C-123.21 407 -135.42 407 -148 407 C-148 382.58 -148 358.16 -148 333 C-160.21 333 -172.42 333 -185 333 C-185 284.16 -185 235.32 -185 185 C-172.79 185 -160.58 185 -148 185 C-148 160.58 -148 136.16 -148 111 C-135.79 111 -123.58 111 -111 111 C-111 98.79 -111 86.58 -111 74 C-98.79 74 -86.58 74 -74 74 C-74 61.79 -74 49.58 -74 37 C-49.58 37 -25.16 37 0 37 C0 24.79 0 12.58 0 0 Z " fill="#F44336" transform="translate(186,1)"/>
<path d="M0 0 C24.42 0 48.84 0 74 0 C74 24.42 74 48.84 74 74 C135.05 74 196.1 74 259 74 C259 110.63 259 147.26 259 185 C246.79 185 234.58 185 222 185 C222 197.21 222 209.42 222 222 C209.79 222 197.58 222 185 222 C185 234.21 185 246.42 185 259 C160.58 259 136.16 259 111 259 C111 271.21 111 283.42 111 296 C62.16 296 13.32 296 -37 296 C-37 283.79 -37 271.58 -37 259 C-61.42 259 -85.84 259 -111 259 C-111 246.79 -111 234.58 -111 222 C-123.21 222 -135.42 222 -148 222 C-148 209.79 -148 197.58 -148 185 C-160.21 185 -172.42 185 -185 185 C-185 148.37 -185 111.74 -185 74 C-123.95 74 -62.9 74 0 74 C0 49.58 0 25.16 0 0 Z " fill="#FFFFFF" transform="translate(223,223)"/>
<path d="M0 0 C12.21 0 24.42 0 37 0 C37 48.84 37 97.68 37 148 C24.79 148 12.58 148 0 148 C0 135.79 0 123.58 0 111 C-61.05 111 -122.1 111 -185 111 C-185 86.58 -185 62.16 -185 37 C-172.79 37 -160.58 37 -148 37 C-148 49.21 -148 61.42 -148 74 C-99.16 74 -50.32 74 0 74 C0 49.58 0 25.16 0 0 Z " fill="#000000" transform="translate(482,186)"/>
<path d="M0 0 C12.21 0 24.42 0 37 0 C37 24.42 37 48.84 37 74 C85.84 74 134.68 74 185 74 C185 61.79 185 49.58 185 37 C197.21 37 209.42 37 222 37 C222 61.42 222 85.84 222 111 C160.95 111 99.9 111 37 111 C37 123.21 37 135.42 37 148 C24.79 148 12.58 148 0 148 C0 99.16 0 50.32 0 0 Z " fill="#000000" transform="translate(1,186)"/>
<path d="M0 0 C61.05 0 122.1 0 185 0 C185 12.21 185 24.42 185 37 C123.95 37 62.9 37 0 37 C0 24.79 0 12.58 0 0 Z " fill="#000000" transform="translate(186,1)"/>
<path d="M0 0 C48.84 0 97.68 0 148 0 C148 12.21 148 24.42 148 37 C99.16 37 50.32 37 0 37 C0 24.79 0 12.58 0 0 Z " fill="#000000" transform="translate(186,482)"/>
<path d="M0 0 C24.42 0 48.84 0 74 0 C74 24.42 74 48.84 74 74 C49.58 74 25.16 74 0 74 C0 49.58 0 25.16 0 0 Z " fill="#FFFFFF" transform="translate(223,223)"/>
<path d="M0 0 C24.42 0 48.84 0 74 0 C74 12.21 74 24.42 74 37 C49.58 37 25.16 37 0 37 C0 24.79 0 12.58 0 0 Z " fill="#000000" transform="translate(334,445)"/>
<path d="M0 0 C24.42 0 48.84 0 74 0 C74 12.21 74 24.42 74 37 C49.58 37 25.16 37 0 37 C0 24.79 0 12.58 0 0 Z " fill="#000000" transform="translate(112,445)"/>
<path d="M0 0 C12.21 0 24.42 0 37 0 C37 24.42 37 48.84 37 74 C24.79 74 12.58 74 0 74 C0 49.58 0 25.16 0 0 Z " fill="#000000" transform="translate(445,334)"/>
<path d="M0 0 C12.21 0 24.42 0 37 0 C37 24.42 37 48.84 37 74 C24.79 74 12.58 74 0 74 C0 49.58 0 25.16 0 0 Z " fill="#000000" transform="translate(38,334)"/>
<path d="M0 0 C24.42 0 48.84 0 74 0 C74 12.21 74 24.42 74 37 C49.58 37 25.16 37 0 37 C0 24.79 0 12.58 0 0 Z " fill="#000000" transform="translate(223,297)"/>
<path d="M0 0 C24.42 0 48.84 0 74 0 C74 12.21 74 24.42 74 37 C49.58 37 25.16 37 0 37 C0 24.79 0 12.58 0 0 Z " fill="#000000" transform="translate(223,186)"/>
<path d="M0 0 C12.21 0 24.42 0 37 0 C37 24.42 37 48.84 37 74 C24.79 74 12.58 74 0 74 C0 49.58 0 25.16 0 0 Z " fill="#000000" transform="translate(445,112)"/>
<path d="M0 0 C12.21 0 24.42 0 37 0 C37 24.42 37 48.84 37 74 C24.79 74 12.58 74 0 74 C0 49.58 0 25.16 0 0 Z " fill="#000000" transform="translate(38,112)"/>
<path d="M0 0 C24.42 0 48.84 0 74 0 C74 12.21 74 24.42 74 37 C49.58 37 25.16 37 0 37 C0 24.79 0 12.58 0 0 Z " fill="#000000" transform="translate(112,38)"/>
<path d="M0 0 C12.21 0 24.42 0 37 0 C37 12.21 37 24.42 37 37 C24.79 37 12.58 37 0 37 C0 24.79 0 12.58 0 0 Z " fill="#000000" transform="translate(408,408)"/>
<path d="M0 0 C12.21 0 24.42 0 37 0 C37 12.21 37 24.42 37 37 C24.79 37 12.58 37 0 37 C0 24.79 0 12.58 0 0 Z " fill="#000000" transform="translate(75,408)"/>
<path d="M0 0 C12.21 0 24.42 0 37 0 C37 12.21 37 24.42 37 37 C24.79 37 12.58 37 0 37 C0 24.79 0 12.58 0 0 Z " fill="#000000" transform="translate(408,75)"/>
<path d="M0 0 C12.21 0 24.42 0 37 0 C37 12.21 37 24.42 37 37 C24.79 37 12.58 37 0 37 C0 24.79 0 12.58 0 0 Z " fill="#000000" transform="translate(75,75)"/>
<path d="M0 0 C12.21 0 24.42 0 37 0 C37 12.21 37 24.42 37 37 C24.79 37 12.58 37 0 37 C0 24.79 0 12.58 0 0 Z " fill="#000000" transform="translate(371,38)"/>
</svg>
